<svg width="46" height="46" viewBox="0 0 46 46" fill="none" xmlns="http://www.w3.org/2000/svg">
<rect x="3.5" y="3.5" width="39" height="39" rx="3.5" stroke="black" stroke-width="3"/>
<path d="M16.1504 27.9512C16.6061 27.9512 17.0026 27.8646 17.3398 27.6914C17.6771 27.5182 17.9368 27.2767 18.1191 26.9668C18.3105 26.6478 18.4062 26.265 18.4062 25.8184H22.4258C22.4258 26.8939 22.1478 27.8418 21.5918 28.6621C21.0449 29.4824 20.3066 30.125 19.377 30.5898C18.4473 31.0456 17.3991 31.2734 16.2324 31.2734C15.084 31.2734 14.0814 31.0866 13.2246 30.7129C12.3678 30.3301 11.6523 29.7969 11.0781 29.1133C10.5039 28.4297 10.071 27.6367 9.7793 26.7344C9.49674 25.8229 9.35547 24.8385 9.35547 23.7812V23.4258C9.35547 22.3776 9.49674 21.3978 9.7793 20.4863C10.071 19.5749 10.5039 18.7773 11.0781 18.0938C11.6523 17.4102 12.3633 16.8815 13.2109 16.5078C14.0677 16.125 15.0703 15.9336 16.2188 15.9336C17.431 15.9336 18.502 16.166 19.4316 16.6309C20.3704 17.0957 21.1042 17.7656 21.6328 18.6406C22.1615 19.5065 22.4258 20.5501 22.4258 21.7715H18.4062C18.4062 21.2975 18.3197 20.8737 18.1465 20.5C17.9824 20.1172 17.7272 19.8164 17.3809 19.5977C17.0436 19.3698 16.6243 19.2559 16.123 19.2559C15.6035 19.2559 15.1751 19.3698 14.8379 19.5977C14.5098 19.8164 14.2591 20.1217 14.0859 20.5137C13.9128 20.9056 13.7943 21.3522 13.7305 21.8535C13.6667 22.3457 13.6348 22.8698 13.6348 23.4258V23.7812C13.6348 24.3464 13.6667 24.8841 13.7305 25.3945C13.7943 25.8958 13.9128 26.3379 14.0859 26.7207C14.2682 27.1035 14.5234 27.4043 14.8516 27.623C15.1797 27.8418 15.6126 27.9512 16.1504 27.9512ZM29.7266 27.9785L32.8164 16.207H37.3008L32.3926 31H29.6992L29.7266 27.9785ZM27.7305 16.207L30.8066 27.9922L30.834 31H28.1406L23.2324 16.207H27.7305Z" fill="black"/>
</svg>
